<svg xmlns="http://www.w3.org/2000/svg" xmlns:xlink="http://www.w3.org/1999/xlink" height="173.267" width="1000" viewBox="2600 -200 1000 173.267" xmlns:v="https://vecta.io/nano"><linearGradient y2="-104.645" x2="3700" y1="-104.645" x1="3080.638" gradientUnits="userSpaceOnUse" id="A"><stop offset="0" stop-color="#991eeb"/><stop offset=".399" stop-color="#5822b4"/><stop offset=".727" stop-color="#5822b4"/><stop offset="1" stop-color="#991eeb"/></linearGradient><path d="M2723.178-27.46h-46.089v-65.725h-29.817v65.725H2600V-197h47.18v63.271h29.817V-197h46.089v169.54zm211.265.727c47.18 0 85.724-39.271 85.724-87.088 0-48.544-38.544-86.088-85.724-86.088-47.817 0-71.998 34.726-77.816 48.907 0-20.999-20.999-46.089-45.362-46.089h-78.725V-27.46h73.27c29.817 0 50.816-25.454 50.816-47.817 6.636 13.818 30.09 48.544 77.816 48.544zm-134.45-68.907c6.818 0 12.272 6.636 12.272 14.181 0 7.909-5.454 14.545-12.272 14.545h-23.454V-95.64zm0-63.634c6.818 0 12.272 6.636 12.272 14.181s-5.454 14.181-12.272 14.181h-23.454v-28.363zm30.999 45.453c5.454-.364 14.363-6.636 17.727-10.363-1.273 4.545-1.273 18.908 0 23.454-3.727-5.545-12.272-12.091-17.727-13.09zm60.452 0c0-23.908 19.454-43.18 43.362-43.089 23.999.182 43.089 19.727 42.817 43.726-.364 23.636-19.454 42.635-43.089 42.635-23.817 0-43.09-19.272-43.09-43.271zm42.999 33.999c18.363 0 33.817-15.09 33.817-33.999s-15.454-33.817-33.817-33.817c-18.909 0-33.999 14.909-33.999 33.817s15.09 33.999 33.999 33.999z" fill="#fff"/><g transform="matrix(.90906 0 0 .90906 236.44484 -18.188064)"><path d="M3333.2-130.7c-1-45.2-33-69.1-72.2-69.1-21.5 0-40.9 7.2-54.1 21.2-13.2-14-32.6-21.2-54.1-21.2-39.2 0-71.2 24-72.2 69.2v.3 103.1c0 9.5 7.7 17.1 17.1 17.1h16.2c1.6 0 2.9-1.3 2.9-2.9v-117.4h0c.7-22.3 16.5-34.1 36-34.1s35.3 11.8 36 34.1h0v103.1c0 9.5 7.7 17.1 17.1 17.1h16.2c1.6 0 2.9-1.3 2.9-2.9v-117.4h0c.7-22.3 16.5-34.1 36-34.1s35.3 11.8 36 34.1h0v103.1c0 9.5 7.7 17.1 17.1 17.1h16.2c1.6 0 2.9-1.3 2.9-2.9v-117.4c.1.1 0 0 0-.1zm364.7-66.2h-27.5c-7.6 0-14.7 3.8-19 10.1l-30.4 45a10 10 0 0 1-16.6 0l-30.4-45c-4.2-6.3-11.4-10.1-19-10.1h-27.5c-1.7 0-2.7 1.9-1.8 3.3l54.2 80.4a17.22 17.22 0 0 1 0 19.2l-54.2 80.4c-1 1.4.1 3.3 1.8 3.3h27.5c7.6 0 14.7-3.8 19-10.1l30.4-45a10 10 0 0 1 16.6 0l30.4 45c4.2 6.3 11.4 10.1 19 10.1h27.5c1.7 0 2.7-1.9 1.8-3.3l-54.3-80.3a17.22 17.22 0 0 1 0-19.2l54.2-80.4c1-1.4 0-3.4-1.7-3.4zm-184.6 0h-16.2c-8.2 0-15.1 5.8-16.8 13.5-14.4-11-32.5-16.6-52-16.6-47.4 0-85.9 33-85.9 95.3s38.4 95.3 85.9 95.3c19.4 0 37.3-5.5 51.7-16.3.8 8.7 8.1 15.6 17.1 15.6h16.2c1.6 0 2.9-1.3 2.9-2.9v-181c-.1-1.6-1.3-2.9-2.9-2.9zm-85 152.1c-28.3 0-51.3-20.7-51.3-59.8s23-59.8 51.3-59.8 51.3 20.7 51.3 59.8-23 59.8-51.3 59.8z" fill="url(#A)"/><g transform="translate(0 .1)"><defs><path id="B" d="M3333.2-130.8c-1-45.2-33-69.1-72.2-69.1-21.5 0-40.9 7.2-54.1 21.2-13.2-14-32.6-21.2-54.1-21.2-39.2 0-71.2 24-72.2 69.2v.3 103.1c0 9.5 7.7 17.1 17.1 17.1h16.2c1.6 0 2.9-1.3 2.9-2.9v-117.4h0c.7-22.3 16.5-34.1 36-34.1s35.3 11.8 36 34.1h0v103.1c0 9.5 7.7 17.1 17.1 17.1h16.2c1.6 0 2.9-1.3 2.9-2.9v-117.4h0c.7-22.3 16.5-34.1 36-34.1s35.3 11.8 36 34.1h0v103.1c0 9.5 7.7 17.1 17.1 17.1h16.2c1.6 0 2.9-1.3 2.9-2.9v-117.4c.1.1 0 0 0-.1zm364.7-66.2h-27.5c-7.6 0-14.7 3.8-19 10.1l-30.4 45a10 10 0 0 1-16.6 0l-30.4-45c-4.2-6.3-11.4-10.1-19-10.1h-27.5c-1.7 0-2.7 1.9-1.8 3.3l54.2 80.4a17.22 17.22 0 0 1 0 19.2l-54.2 80.4c-1 1.4.1 3.3 1.8 3.3h27.5c7.6 0 14.7-3.8 19-10.1l30.4-45a10 10 0 0 1 16.6 0l30.4 45c4.2 6.3 11.4 10.1 19 10.1h27.5c1.7 0 2.7-1.9 1.8-3.3L3645.4-94a17.22 17.22 0 0 1 0-19.2l54.2-80.4c1-1.4 0-3.4-1.7-3.4zm-184.6 0h-16.2c-8.2 0-15.1 5.8-16.8 13.5-14.4-11-32.5-16.6-52-16.6-47.4 0-85.9 33-85.9 95.3s38.4 95.3 85.9 95.3c19.4 0 37.3-5.5 51.7-16.3.8 8.7 8.1 15.6 17.1 15.6h16.2c1.6 0 2.9-1.3 2.9-2.9v-181c-.1-1.6-1.3-2.9-2.9-2.9zm-85 152.1c-28.3 0-51.3-20.7-51.3-59.8s23-59.8 51.3-59.8 51.3 20.7 51.3 59.8-23 59.8-51.3 59.8z"/></defs><clipPath id="C"><use xlink:href="#B"/></clipPath><radialGradient id="D" cx="1494.392" cy="-276.441" r="164.575" gradientTransform="matrix(0.672,0,0,0.8748,2225.512,101.9935)" gradientUnits="userSpaceOnUse"><stop offset="0" stop-color="#7ba7f2" stop-opacity=".5"/><stop offset="1" stop-color="#7ba7f2" stop-opacity="0"/></radialGradient><ellipse cx="3229.7" cy="-139.8" rx="110.6" ry="144" clip-path="url(#C)" fill="url(#D)"/><radialGradient id="E" cx="3339.858" cy="-386.742" r="227.558" gradientTransform="matrix(1,0,0,0.7081,0,254.0226)" gradientUnits="userSpaceOnUse"><stop offset=".2" stop-color="#7ba7f2"/><stop offset="1" stop-color="#7ba7f2" stop-opacity="0"/></radialGradient><ellipse cx="3339.9" cy="-19.8" rx="227.6" ry="161.1" clip-path="url(#C)" fill="url(#E)"/><radialGradient id="F" cx="3479.585" cy="-189.161" r="123.773" gradientUnits="userSpaceOnUse"><stop offset="0" stop-color="#7ba7f2"/><stop offset="1" stop-color="#7ba7f2" stop-opacity="0"/></radialGradient><circle cx="3479.6" cy="-189.2" r="123.8" clip-path="url(#C)" fill="url(#F)"/></g></g></svg>