<svg xmlns="http://www.w3.org/2000/svg" width="300" height="81.387" fill="#b81d24" xmlns:v="https://vecta.io/nano"><path d="M256.091 76.213l12.519 1.291 9.199-22.713 8.744 24.806 13.442 1.768-15.328-43.502L300 .001h-12.987l-.134.184-8.282 20.455L271.326.001h-12.821l13.238 37.564-15.652 38.648zm-9.699-.889V.003h-12.818v74.266l12.818 1.056m-96.278-4.214l10.366.054V43.493h15.398V31.709H160.48V11.798h17.732V0H147.61v71.12l2.503-.01m-39.795.721l12.824-.385V11.799h11.978V.002H98.337v11.797h11.982v60.032zm-98.022 7.944V34.898l15.175 43.063 14.027-1.482V.003H29.202v46.482L12.824.003h-.528H0v81.384h.076l12.22-1.613M85.98 11.798V.001H55.376v63.391 11.8.01l30.579-2.211v-.01-3.4-8.397l-17.71 1.18V43.496h15.398v-11.79H68.245V11.798H85.98z"/><path d="M203.615 60.621V0h-12.872v60.064 11.797.013l30.604 1.559v-.015-3.81-7.987l-17.732-.999"/></svg>