<svg xmlns="http://www.w3.org/2000/svg" xmlns:xlink="http://www.w3.org/1999/xlink" viewBox="0 0 1200 520" xmlns:v="https://vecta.io/nano"><defs><linearGradient id="A" x1="380.63" y1="343.33" x2="822.49" y2="343.33" gradientUnits="userSpaceOnUse"><stop offset="0" stop-color="#00a8e1"/><stop offset="1" stop-color="#7be8f4"/></linearGradient><linearGradient id="B" y1="332.8" y2="332.8" xlink:href="#A"/></defs><path d="M169.43 284.49a4.59 4.59 0 0 1-3.15-.91 4.3 4.3 0 0 1-1-3.24V169.61a4.26 4.26 0 0 1 1-3.24 4.54 4.54 0 0 1 3.15-.91h11.95a4.3 4.3 0 0 1 4.65 3.65l1.16 4.32a36.84 36.84 0 0 1 12-7.64 38.37 38.37 0 0 1 14.39-2.79q16.1 0 25.48 11.79 9.38 11.79 9.38 31.87 0 13.78-4.65 24.07-4.65 10.29-12.62 15.85a31.1 31.1 0 0 1-18.26 5.56A38.72 38.72 0 0 1 200 250a31.1 31.1 0 0 1-10.46-6v36.35a4.58 4.58 0 0 1-.91 3.24 4.53 4.53 0 0 1-3.24.91h-15.96zm36.35-50.63q9.3 0 13.69-6.31 4.39-6.31 4.4-19.92 0-13.77-4.32-20.09-4.32-6.32-13.78-6.31a31.59 31.59 0 0 0-16.27 4.48v43.66a30.56 30.56 0 0 0 16.28 4.49zm62.75 16.43a3.59 3.59 0 0 1-4.15-4.15v-76.53a4.26 4.26 0 0 1 1-3.24 4.54 4.54 0 0 1 3.15-.91h12a4.3 4.3 0 0 1 4.65 3.65l2.16 9q6.65-7.31 12.53-10.38a26.72 26.72 0 0 1 12.53-3.07h2.32a4.9 4.9 0 0 1 3.32.91 4.3 4.3 0 0 1 1 3.24v13.94a4.59 4.59 0 0 1-.91 3.15 4.3 4.3 0 0 1-3.24 1c-.78 0-1.77-.05-3-.17s-2.77-.17-4.65-.17a49.43 49.43 0 0 0-9.3 1.08 45.63 45.63 0 0 0-9.3 2.74v55.78a4.59 4.59 0 0 1-.91 3.15 4.3 4.3 0 0 1-3.24 1h-15.96zm73.25-97.94q-6.31 0-10.13-3.49a13.62 13.62 0 0 1 0-18.92q3.81-3.48 10.13-3.49 6.32-.01 10.13 3.49a13.62 13.62 0 0 1 0 18.92q-3.82 3.49-10.13 3.49zm-8 97.94a3.59 3.59 0 0 1-4.15-4.15v-76.53a4.26 4.26 0 0 1 1-3.24 4.54 4.54 0 0 1 3.15-.91h15.94a4.58 4.58 0 0 1 3.24.91 4.53 4.53 0 0 1 .91 3.24v76.53a4.59 4.59 0 0 1-.91 3.15 4.3 4.3 0 0 1-3.24 1zm44.48 0a3.59 3.59 0 0 1-4.15-4.15v-76.53a4.26 4.26 0 0 1 1-3.24 4.54 4.54 0 0 1 3.15-.91h11.95a4.3 4.3 0 0 1 4.65 3.65l1.33 4.48a71.91 71.91 0 0 1 15.81-8.22 44.82 44.82 0 0 1 14.57-2.37q14.94 0 21.08 10.62a68 68 0 0 1 15.94-8.13A48.52 48.52 0 0 1 479 163q11.61 0 18 6.47 6.39 6.47 6.39 18.09v58.6a4.59 4.59 0 0 1-.91 3.15 4.3 4.3 0 0 1-3.24 1h-15.9a4.27 4.27 0 0 1-3.15-1 4.33 4.33 0 0 1-1-3.15v-53.33q0-11.28-10.13-11.29a42 42 0 0 0-18.06 4.32v60.26a4.59 4.59 0 0 1-.91 3.15 4.3 4.3 0 0 1-3.24 1h-15.97a3.59 3.59 0 0 1-4.15-4.15v-53.29q0-11.28-10.13-11.29a40.4 40.4 0 0 0-18.26 4.46v60.09a4.59 4.59 0 0 1-.91 3.15 4.3 4.3 0 0 1-3.24 1h-15.93zm182.13 2.65c-13.53 0-23.82-3.16-32.09-11.58-5.43-5.52-10.54-15.77-10.54-33.34 0-14.16 4.49-25 11.79-32.85s18.46-11.54 29-11.54c13.17 0 21 3 27 9a24.85 24.85 0 0 1 7 17.16c0 3.43.11 7-2.25 12a19.2 19.2 0 0 1-4.65 6.07c-9.79 9-29 8.36-35.47 8l-10.51-1.6c.69 7.28 2.73 13 7.19 16.25 4.19 3.06 8.79 4.34 18.19 4.34 4.71 0 11-.94 19.07-3.05.44-.12 1.28-.33 1.58-.38a3.76 3.76 0 0 1 1.53.07c.89.3 1.88 1.14 1.88 3.55v7.64a6.94 6.94 0 0 1-.7 3.74 6.24 6.24 0 0 1-2.93 2 69.93 69.93 0 0 1-25.09 4.52zm10.09-62.21c0-8.1-5.71-10.41-12.74-10.41a16.34 16.34 0 0 0-12.17 5c-3 3.27-4.83 8.24-5.61 14.49 0 0 12.44 2.26 21.43.77 4.67-.76 9.09-3.35 9.09-9.85zm336.65 62.21c-13.53 0-23.82-3.16-32.09-11.58-5.43-5.52-10.54-15.77-10.54-33.34 0-14.16 4.49-25 11.79-32.85s18.46-11.54 29-11.54c13.17 0 21 3 27 9a24.85 24.85 0 0 1 7 17.16c0 3.43.11 7-2.25 12a19.2 19.2 0 0 1-4.65 6.07c-9.79 9-29 8.36-35.47 8l-10.51-1.6c.69 7.28 2.73 13 7.19 16.25 4.19 3.06 8.79 4.34 18.19 4.34 4.71 0 11-.94 19.07-3.05.44-.12 1.28-.33 1.58-.38a3.76 3.76 0 0 1 1.53.07c.89.3 1.88 1.14 1.88 3.55v7.64a6.94 6.94 0 0 1-.7 3.74 6.24 6.24 0 0 1-2.93 2 70 70 0 0 1-25.09 4.52zm10.08-62.21c0-8.1-5.71-10.41-12.74-10.41a16.34 16.34 0 0 0-12.17 5c-3 3.27-4.83 8.24-5.61 14.49 0 0 12.44 2.26 21.43.77 4.67-.76 9.09-3.35 9.09-9.85zm-251.66 59.56a7.62 7.62 0 0 1-2.74-.42 4.29 4.29 0 0 1-1.83-1.33 9.89 9.89 0 0 1-1.41-2.57l-28.39-73.87-.83-2.32A5.82 5.82 0 0 1 630 168c0-1.66 1.1-2.49 3.32-2.49h16.6a6.18 6.18 0 0 1 3.9 1 6.39 6.39 0 0 1 1.91 3.32l17.1 58.76 17.43-58.76a6.32 6.32 0 0 1 1.91-3.32 6.24 6.24 0 0 1 3.9-1h16.1c2.21 0 3.32.83 3.32 2.49a5.87 5.87 0 0 1-.33 1.83l-.83 2.32L686 246a9.56 9.56 0 0 1-1.41 2.57 4.51 4.51 0 0 1-1.74 1.33 7.51 7.51 0 0 1-2.82.42zM738 152.35q-6.32 0-10.13-3.49a13.62 13.62 0 0 1 0-18.92q3.81-3.48 10.13-3.49 6.32-.01 10.13 3.49a13.62 13.62 0 0 1 0 18.92q-3.88 3.49-10.13 3.49zm-8 97.94a4.27 4.27 0 0 1-3.15-1 4.33 4.33 0 0 1-1-3.15v-76.53a4.26 4.26 0 0 1 1-3.24 4.54 4.54 0 0 1 3.15-.91h15.94a4.58 4.58 0 0 1 3.24.91 4.53 4.53 0 0 1 .91 3.24v76.53a4.59 4.59 0 0 1-.91 3.15 4.3 4.3 0 0 1-3.24 1zm70.83 1.83a31.91 31.91 0 0 1-18.76-5.56 35.2 35.2 0 0 1-12.2-15.44 57.54 57.54 0 0 1-4.23-22.83q0-20.58 9.79-32.95 9.79-12.37 25.9-12.34a36 36 0 0 1 22.74 7.47V131.6a4.26 4.26 0 0 1 1-3.24 4.54 4.54 0 0 1 3.15-.91h15.94a4.58 4.58 0 0 1 3.24.91 4.53 4.53 0 0 1 .91 3.24v114.54a4.59 4.59 0 0 1-.91 3.15 4.3 4.3 0 0 1-3.24 1h-13.28a4.14 4.14 0 0 1-4.65-3.65l-1-3.82a35.17 35.17 0 0 1-24.4 9.3zm8-18.26a28 28 0 0 0 15.27-4.65v-43.82a32.07 32.07 0 0 0-16.43-4.15q-8.8 0-13.11 6.56-4.31 6.56-4.32 19.84 0 13.28 4.56 19.75 4.56 6.47 14 6.47zm183.89 18.92q-19.76 0-30.88-11.87-11.12-11.87-11.12-33.12 0-21.07 11.12-32.95 11.12-11.88 30.88-11.84 19.75 0 30.88 11.87 11.13 11.87 11.12 32.95 0 21.26-11.12 33.12-11.12 11.86-30.88 11.84zm0-18.59q17.43 0 17.43-26.39 0-26.22-17.43-26.23-17.43-.01-17.43 26.23 0 26.38 17.43 26.39z" fill="#f5f5f5"/><g fill-rule="evenodd"><path d="M376.23,296.42v1.36a6.26,6.26,0,0,0,1.94,3.53c59.22,57.61,137.44,92.23,224.3,92.23,62,0,134-21,183.63-60.48,8.21-6.57,1.18-16.35-7.21-12.52-55.66,25.45-116.15,37.77-171.2,37.77-81.57,0-160.57-24.12-224.42-64.17a6.08,6.08,0,0,0-3.21-1,3.79,3.79,0,0,0-3.83,3.31" fill="url(#A)"/><path d="M745.15,302.65a6.66,6.66,0,0,0-2.86,4.17v.81c.21,1.51,1.61,2.52,4.09,2.21,16-2.07,51.62-6.64,58,2.1s-7.06,44.73-13.05,60.77c-1.8,4.83,2.08,6.83,6.16,3.12,26.65-23.91,33.53-74,28.06-81.27-2.6-3.47-14.83-6.71-30-6.71-16.19,0-35.71,3.71-50.39,14.8" fill="url(#B)"/></g></svg>